<?xml version="1.0" encoding="utf-8"?>
<!-- Generator: Adobe Illustrator 27.8.0, SVG Export Plug-In . SVG Version: 6.00 Build 0)  -->
<svg version="1.1" xmlns="http://www.w3.org/2000/svg" xmlns:xlink="http://www.w3.org/1999/xlink" x="0px" y="0px"
	 viewBox="0 0 354.9 194.77" style="enable-background:new 0 0 354.9 194.77;" xml:space="preserve">
<style type="text/css">
	.st0{display:none;}
	.st1{display:inline;fill:#3C3C3B;}
	.st2{fill:#FFFFFF;}
	.st3{fill:#3C3C3B;}
	.st4{fill:#006633;}
	.st5{fill:#2FAC66;}
	.st6{fill:#3AAA35;}
	.st7{fill:#95C11F;}
	.st8{fill:#00A19A;}
</style>
<g id="Hintergrund" class="st0">
</g>
<g id="Hilfslinien">
</g>
<g id="Ebene_1">
	<g>
		<path class="st4" d="M176.28,53.38l-7.42-10l-4.75,4.17l0,5.82l-8.08,0l0.01-25.42l8.08,0l-0.01,10.49l11.15-10.48l11.06,0.01
			l-11.3,9.95l11.63,15.47L176.28,53.38z"/>
		<path class="st4" d="M200.22,39.04l18.99,0.01l-0.01,14.36l-7.62,0l-0.31-2.26c-2.37,1.88-5.86,2.83-10.26,2.83
			c-9.34,0-14.35-4.03-14.35-12.03l0-2.57c0-7.96,5.29-11.98,16.62-11.97c11.22,0.01,15.7,3.3,15.77,9.62v0.46l-8.35,0v-0.42
			c-0.04-1.91-2.37-2.68-7.42-2.68c-5.36,0-8.27,1.26-8.27,5.36l0,1.88c0,4.06,2.95,5.32,8.04,5.33c4.94,0,7.08-0.72,7.58-2.79
			v-0.19l-10.41-0.01L200.22,39.04z"/>
		<path class="st4" d="M245.37,28l9.19,0l-13.41,25.45l-7.31,0l-13.39-25.47l9.15,0l7.88,16.58L245.37,28z"/>
		<path class="st4" d="M178.02,91.67l-1.8-3.79l-13.28-0.01l-1.8,3.79l-8.42,0l13.11-25.41l7.54,0l13.08,25.43L178.02,91.67z
			 M165.66,82.21l7.85,0l-3.9-8.23L165.66,82.21z"/>
		<path class="st4" d="M197.25,84.68l15.85,0.01l0,7.01l-23.93-0.01l0.01-25.42l8.08,0L197.25,84.68z"/>
		<path class="st4" d="M237.46,66.29l0,7.04l-9.57,0l-0.01,18.38l-8.08,0l0.01-18.38l-9.57-0.01l0-7.04L237.46,66.29z"/>
		<path class="st4" d="M186.35,122.16v0.34c0,4.71-3.26,7.46-10.8,7.46l-19.56-0.01l0.01-25.42l20.18,0.01
			c5.9,0,8.46,1.92,8.46,5.94v0.31c-0.04,2.6-1.3,4.59-3.56,5.55C184.52,117.07,186.32,119.06,186.35,122.16z M177.7,121.01
			c-0.04-1.34-0.96-1.99-3.21-1.99l-10.45-0.01l0,4.56l10.49,0.01c2.18,0,3.18-0.84,3.18-2.18L177.7,121.01z M176.41,112.7
			c-0.04-1.11-0.61-1.76-2.49-1.76l-9.88,0l0,3.94l9.69,0c1.99,0,2.68-0.76,2.68-1.84V112.7z"/>
		<path class="st4" d="M191.03,129.97l0.01-25.42l8.08,0l-0.01,25.42L191.03,129.97z"/>
		<path class="st4" d="M204.28,118.57l0-2.6c0-7.89,4.52-11.87,16.66-11.9c12.06-0.03,16.58,3.72,16.65,10.96l0,0.57l-8.35,0l0-0.5
			c0-2.87-2.56-4.06-8.31-4.06c-5.63,0-8.31,1.34-8.31,5.28l0,1.91c0,3.94,2.68,5.28,8.3,5.29c5.74,0,8.31-1.18,8.31-4.09l0-0.46
			l8.35,0l0,0.5c0,7.35-4.56,11.02-16.66,11.06C208.79,130.52,204.28,126.46,204.28,118.57z"/>
		<path class="st4" d="M262.89,130.01l-7.42-10l-4.75,4.17l0,5.82l-8.08,0l0.01-25.42l8.08,0l0,10.49l11.15-10.48l11.06,0.01
			l-11.3,9.95l11.63,15.47L262.89,130.01z"/>
		<path class="st4" d="M302.46,111.46l-17.23-0.01l0,3.41l15.01,0.01l0,4.79l-15.01-0.01l0,3.52l17.23,0.01l0,6.85l-25.31-0.01
			l0.01-25.42l25.31,0.01L302.46,111.46z"/>
		<path class="st4" d="M331.41,104.62l7.54,0l-0.01,25.42l-9.38,0l-14.2-15.09l-0.01,15.08l-7.58,0l0.01-25.42l9.04,0l14.58,15.05
			L331.41,104.62z"/>
		<path class="st4" d="M172.26,142.83c9.8,0,13.97,3.72,13.97,11.88l0,1.72c0,8.16-4.18,11.83-13.98,11.82l-16.27-0.01l0.01-25.42
			L172.26,142.83z M177.88,154.7c0-3.6-1.8-4.83-5.43-4.83l-8.38,0l-0.01,11.33l8.38,0c3.64,0,5.44-1.22,5.44-4.86L177.88,154.7z"/>
		<path class="st4" d="M189.9,156.85l0-2.64c0-7.89,5.37-11.9,17.27-11.94c11.91,0.04,17.3,4.07,17.3,11.95l0,2.64
			c0,7.92-5.4,11.98-17.31,11.97C195.26,168.88,189.9,164.78,189.9,156.85z M216.05,156.41l0-1.72c0-3.98-2.68-5.32-8.88-5.33
			c-6.2,0-8.88,1.34-8.88,5.32l0,1.72c0,4.02,2.72,5.36,8.88,5.36C213.37,161.77,216.05,160.43,216.05,156.41z"/>
		<path class="st4" d="M249.63,168.29l-5.47-7.97l-6.39,0l0,7.96l-8.08,0l0.01-25.42l17.8,0.01c7.04,0,10.68,2.26,10.68,8.43v0.57
			c0,4.36-1.76,6.78-5.21,7.81l6.27,8.62L249.63,168.29z M237.77,149.6l0,4.63l9.38,0c1.91,0,2.68-0.73,2.68-2.07v-0.54
			c0-1.38-0.8-2.03-2.68-2.03L237.77,149.6z"/>
		<path class="st4" d="M289.03,149.94l-16.88-0.01l0,4.17l14.66,0.01l0,6.39l-14.66-0.01l0,7.81l-8.08,0l0.01-25.42l24.96,0.01
			L289.03,149.94z"/>
	</g>
	<g>
		<polygon class="st4" points="93.68,29.79 93.69,29.79 93.68,29.79 		"/>
		<path class="st4" d="M97.12,28.56h-1.01C96.49,28.67,96.86,28.64,97.12,28.56z"/>
		<path class="st4" d="M123.95,34.88l0.22-0.16c-0.05-0.38-0.08-0.76-0.08-1.01c-0.02,0.11-0.06,0.25-0.11,0.38
			C123.93,34.31,123.91,34.56,123.95,34.88z"/>
		<path class="st4" d="M93.75,29.68c-0.02,0.02-0.05,0.05-0.05,0.08C93.81,29.73,94.11,29.72,93.75,29.68z"/>
		<path class="st4" d="M93.67,29.76c-0.06-0.02-0.04,0,0.01,0.03c0-0.01,0.01-0.02,0.01-0.03C93.7,29.76,93.68,29.76,93.67,29.76z"
			/>
		<path class="st4" d="M116.34,28.78c0.22-0.03,0.46-0.11,0.68-0.21h-0.82C116.27,28.62,116.37,28.7,116.34,28.78z"/>
		<path class="st4" d="M97.38,28.56c0,0-0.01,0.01-0.01,0.01l0.08-0.01H97.38z"/>
		<path class="st4" d="M125.09,41.35c-0.15,0.04-0.3,0.07-0.4,0.01l0.4,0.74V41.35z"/>
		<path class="st4" d="M123.66,56.18c0.16-0.17,0.2-0.29,0.08-0.32l-1.04,0.45c0.11,0.01,0.29,0.05,0.48,0.09l0.24-0.06
			C123.5,56.28,123.58,56.23,123.66,56.18z"/>
		<path class="st4" d="M106.22,29.69c0.32,0.04,0.48,0.08,0.02-0.01L106.22,29.69z"/>
		<path class="st4" d="M121.84,29.21c0.12-0.11,0.17-0.37,0.16-0.65h-0.96l-0.12,0.37l-0.02-0.37h-1c0.01,0.04,0.05,0.08,0.1,0.11
			C120.33,28.86,121.74,29.19,121.84,29.21z"/>
		<path class="st4" d="M110.09,29.17c0.83-0.12,1.49-0.35,1.87-0.6h-3.89c0.12,0.02,0.22,0.04,0.28,0.07
			c-0.3-0.07-0.85-0.01-1.12,0.08l0.69,0.12c-0.56,0.01-1-0.25-1.83-0.15c0.14,0.19-0.46,0.44,0.17,0.7
			c1.59,0.29,1.3-0.49,3.21-0.42C109.65,28.9,109.08,29.27,110.09,29.17z M110.34,28.62c0.28-0.03,0.48,0.02,0.4,0.1L110,28.79
			C109.89,28.71,110.16,28.68,110.34,28.62z"/>
		<path class="st4" d="M124.08,56.16c-0.02-0.06-0.09-0.1-0.24-0.1c-0.04,0.04-0.1,0.08-0.17,0.12c-0.03,0.04-0.07,0.08-0.11,0.12
			L124.08,56.16z"/>
		<path class="st4" d="M73.26,29.91l-0.05-0.53c0.28,0.18,0.01,1.68,0.3,1.98l-0.3,1.69c0.11-0.05,0.27,0.22,0.3-0.05
			c0-0.2,0-0.42-0.01-0.55c0.03,0.28,0.03,0.45,0.01,0.55c0.01,0.42,0.02,0.78,0.17,0.23c-0.72,4.03-0.02,8.17-0.41,12.13
			c0.03,0.27,0.13,0.11,0.19,0.01c-0.27,0.73,0.14,0.7,0.18,1.1l-0.39,1.07c0.12,0.43,0.24,0.1,0.32,0.13
			c0.08,2.02-0.31,4-0.07,5.63c-0.14,0.52-0.32-0.12-0.37,0.56c0.41-0.93,0.19,2.01,0.48,1.41c-0.43,0.67-0.09,2.48-0.69,2.18
			c-0.04,0.82,0.26,0.68,0.31,0.44c-0.02,0.96-0.03,1.73,0.16,2.51c-0.14,0.52,0.15,4.37-0.3,5.22c0.29-0.58,0.15,0.04,0.28,0.6
			l0.26-0.5L73.61,67c0.02,0.26,0.01,0.33-0.01,0.33c-0.01,0.17-0.15-0.03-0.22,0.31c-0.02,0.51,0.13,0.45,0.26,0.52l0.04-0.09
			l0.02,0.2c0,0.09-0.07,0.03-0.15-0.01c-0.08-0.03-0.18-0.06-0.24,0.44c0.02-0.02,0.07-0.03,0.13-0.03
			c0.26-0.19,0.49-0.38,0.53-0.25c-0.29,0.06-0.42,0.3-0.32,0.35l0.56-0.13c-0.05-0.11-0.07-0.22-0.08-0.34
			c1.12-0.25,2.28-0.51,3.46-0.77c1.36-0.3,2.74-0.6,4.12-0.98c0.03,0.31,1.96-0.5,1.82,0l-0.12-0.01c-0.67,0.22,0.28,0.3,0.82,0.1
			c-0.61,0.01,0.94-0.72-0.49-0.41l1.04-0.5c0.41-1,2.92-0.7,4.5-1.4c-0.11,0.06-0.13,0.12-0.14,0.15c1.4-0.66,3.34-0.64,3.65-0.87
			l0.18,0.2c1.17-0.69,1.31-0.76,2.84-1.01c-0.01,0.04-0.17,0.15,0.08,0.14c0.32-0.27,0.64-0.53,1.68-0.76l-0.03,0.08l1.59-0.46
			c0.15,0.72,2.64-1.16,3.3-0.51c0.27-0.29,1.42-0.67,1.92-0.9c-0.02-0.04,0.05-0.11,0.22-0.19c0.05,0.04-0.04,0.11-0.22,0.19
			c0.01,0.03,0.05,0.05,0.14,0.06c0.53-0.55,1.8-0.35,2.47-0.57c0.42-0.21,0.2-0.28-0.02-0.35c0.95,0.07,2.34-0.98,2.69-0.94
			c0.65-0.14,0.3,0.21,0.52,0.32c0.94-0.32-0.31-0.6,1.04-0.66c-0.14,0.07-0.41,0.17-0.29,0.18c0.5-0.07,1.57,0.52,2.02,0.23
			l-0.35-0.04c0.85-0.42,2.25,0.02,2.28-0.5l-0.14-0.2c1.61-0.11,0.63-0.26,2.25-0.41l-0.01,0.04c0.67-0.22,1.1-0.04,1.35-0.49
			l-0.25,0.01c0.84-0.25,0.92-0.24,1.78-0.45c0.09-0.06,0.5-0.22,0.63-0.18c-0.03-0.31,1.96-0.67,2.35-0.75
			c-0.67,0.22-0.32,0.27-0.1,0.34c0.31-0.34,0.7-0.47,1.12-0.4c-0.08-0.34-0.16-0.7-0.03-0.82l-0.01-0.09
			c0.02,0.05,0.05,0.09,0.07,0.13c0,0.03,0.01,0.05,0.06,0.08c0.02,0.01,0.03,0.01,0.05,0.01c0.02-0.03-0.04-0.15-0.06-0.19
			c0.07-0.01,0.13,0.19,0.25,0.22c-0.17-0.3-0.18-0.4-0.16-0.56c0.02-0.4,0.07-0.84,0.01-1.44c0.11,0.38,0.18,0.05,0.3-0.08
			c-0.41-0.09,0.35-1.62-0.17-1.17c0.31-2.32,0.02-5.89,0.36-6.8c0.15-0.24-0.09-0.89-0.1-1.29l0.18,0.06
			c-0.32-1.13-0.12-0.88-0.44-2.21c0.21,0.55,0.31,0.32,0.48-0.23l-0.37-0.91l0.27-0.18c-0.11-0.38-0.06-0.79-0.02-1.21
			c0,0.2,0.03,0.09,0.08,0.08c-0.38-0.2-0.34-1.83-0.52-2.09c0.37-0.41-0.09-1.09,0.25-1.39c-0.05-0.13-0.09-0.31-0.13-0.5
			c-0.16,0.2-0.34,0.27-0.26-0.1c0-0.03,0-0.06-0.01-0.09l-0.19,0.14c-0.2,0.06,0.06-0.46,0.22-0.93c0.04-0.15,0.07-0.31,0.11-0.45
			c0-0.05,0-0.1,0-0.13c0.01,0.02,0.01,0.05,0.01,0.08c0.05-0.23,0.08-0.47,0-0.79c0.16-0.64,0.06-1.34-0.04-2.06
			c-0.05-0.47-0.09-0.41-0.11-0.58c-0.01-0.12,0.01-0.24,0.1-0.48l-0.02-0.04l0.03,0.03c-0.03,0.11-0.03,0.19,0.03,0.17
			c0-0.07,0-0.13,0.01-0.21c-0.19-0.02-0.37-0.09-0.58-0.14l-0.16-0.03c-0.1,0-0.2-0.01-0.29-0.01c-0.19,0-0.36,0.01-0.52,0.05
			l0.05,0.22c-0.83,0.1-1.47,0.17-2.14,0.15l-0.04,0.24c-0.97-0.09-3.05,0.3-3.64-0.2c-0.24,0.19-1.34-0.06-1.89,0.01l-0.14-0.19
			c-0.72-0.06-1.16,0.01-1.59,0.06c0.07,0.02,0.12,0.03,0.2,0.05c-0.37,0.15-0.75,0.09-1.08,0c-0.26-0.01-0.56-0.04-0.94-0.13
			c0.12-0.17,0.48,0.01,0.94,0.13c0.33,0.01,0.61-0.01,0.88-0.05c-1.46-0.39-2.81-0.01-4.08-0.03l-0.01-0.05l-1.29,0.13
			c0.34-0.17-0.25,0.12-0.64,0.07c-0.41,0.09-1.08,0.04-1.56-0.08l-0.82-0.01c0.92-0.13-0.06-0.27-0.12-0.49l-0.53,0.17
			c-0.21-0.1,0.34-0.17-0.05-0.22c-0.35,0.12-1.39,0.11-1.72,0.33c0.05,0.05,0.18,0.11,0.33,0.15c0.04-0.01,0.04-0.01,0.01,0
			l0.04,0.01c0.19,0.03,0.3,0.05,0.36,0.06c0.14,0.02,0.29,0.02,0.45,0.02c-0.19,0.01-0.31,0.01-0.39,0.01c-0.04,0.02-0.28,0.01,0,0
			c0.01-0.01-0.01-0.02-0.06-0.03c-0.13-0.02-0.25-0.04-0.36-0.06c-0.02,0-0.03,0-0.04-0.01c-0.04,0.02-0.11,0.06-0.14,0.09
			c0.07,0.01,0.15,0.01,0.24,0.02c-0.25,0.04-0.28,0.01-0.24-0.02c-0.65-0.05-0.41,0.04-0.39,0.14c-0.74-0.34-1.16-0.11-1.73-0.51
			c0.77,0.45-1.7,0-1.22,0.43c-0.55-0.34-0.38-0.02-0.73-0.31c0.78,0.09,1.56-0.22,2.18-0.37l-0.62-0.2
			c0.4-0.39,1.38,0.14,1.75,0.01c-0.25,0.09-0.8,0-0.82-0.09l0.17,0.3c0.88,0.12,1.58-0.11,2.21-0.26c-0.59-0.1,0.72-0.18,0.29-0.39
			l-0.47,0.04c-0.06-0.03-0.06-0.06-0.03-0.09h-5.04c-0.12,0.27-1.18,0.38-0.87,0.59c-0.4-0.1-0.25-0.27-1.08-0.17
			c-0.53,0.17,0.64,0.31,0.86,0.42c-0.62,0.11-0.62,0.19-0.64,0.27l0.05,0.04l-0.07,0c-0.03,0.06-0.12,0.13-0.55,0.23
			c-0.39-0.15-0.6-0.23-0.89-0.26l-1.22,0.11l0.03,0.01c0.17,0.03,0.33,0.07,0.47,0.11c-0.05,0.05-0.33-0.05-0.47-0.11
			c-0.2-0.04-0.41-0.07-0.63-0.09c-0.34,0.01-0.64,0.02-0.91,0.11c-0.39,0.01-0.23-0.11-0.18-0.17c-0.23,0-0.45,0.02-0.65,0.04
			c-0.11,0.05-0.22,0.1-0.36,0.13c0.04,0.03,0.05,0.05-0.04,0.01l0.04-0.01c-0.02-0.02-0.06-0.04-0.09-0.06
			c0.13-0.03,0.29-0.05,0.45-0.07c0.15-0.06,0.32-0.11,0.59-0.07c0.09-0.01,0.08,0.01,0.06,0.04c0.36,0,0.73,0.02,1.09,0.06
			c0.2-0.01,0.42-0.02,0.66-0.05c-0.88-0.12,0.69-0.28-0.53-0.23c0.45-0.09,0.22-0.25,0.98-0.26c0.38,0.22-0.24,0.31-0.44,0.52
			c0.57-0.02,0.9-0.03,1.15,0l0.26-0.02l-0.09,0.03l1.27,0.03l0.01-0.04c-0.52-0.34-0.9-0.95-0.34-1.11h-0.93
			c0.2,0.05-0.01,0.11-0.34,0.12l-0.02-0.11c0.03-0.01,0.06-0.01,0.1-0.01H73.44l0.26,0.36l-0.29,0.14c0.07-0.1,0.04-0.37,0.03-0.51
			h-0.79v1.39c0.04-0.04-0.05-0.24,0.2-0.22c-0.01-0.05,0.22,0.18-0.2,0.22v0.27C72.87,29.86,73.08,29.52,73.26,29.91z
			 M103.83,29.89c0.11,0.08,0.04-0.22,0.24-0.17C105.17,29.59,103.61,30.14,103.83,29.89z M100.32,29.84
			c0.15,0.04,0.25,0.09,0.55,0.08l-0.61,0.06C100.45,29.98,100.33,29.9,100.32,29.84z M101.84,28.76c0.11-0.02,0.19-0.04,0.18-0.08
			l0.68,0.07C102.72,28.81,102.26,28.77,101.84,28.76c-0.17,0.03-0.43,0.04-0.55,0.04C101.42,28.76,101.63,28.75,101.84,28.76z
			 M99.74,28.61l-0.24,0.19l-0.15-0.24L99.74,28.61z M99.69,29.21c-0.45,0.09-0.9,0.18-0.78-0.09h-0.08
			C99.27,29.08,99.65,29.01,99.69,29.21z M98.74,29.12c-0.23,0.03-0.44,0.11-0.39,0C98.48,29.14,98.61,29.13,98.74,29.12z
			 M97.84,29.79l0.3,0.08l-0.35,0.11L97.84,29.79z M96.52,29.81l0.45-0.09l-0.59,0.31L96.52,29.81z M91.58,30.1
			c0.46,0.11,0.82,0.13,1.15,0.07c-0.31,0.11-0.66,0.23-1.07,0.25C91.92,30.34,91.33,30.24,91.58,30.1z M91.5,28.99l-0.03-0.11
			L92,29.06l-1.02,0.1C91.05,29.08,90.93,28.95,91.5,28.99z M84.68,29.74l-0.59,0.11c0.25-0.07,0.37-0.17,0.32-0.07
			C84.59,29.57,84.6,29.69,84.68,29.74l0.28-0.05C84.8,29.79,84.73,29.77,84.68,29.74z M87.8,30.12c-0.03-0.11-0.41-0.15-0.62-0.2
			l0.4-0.08c-0.03-0.08,0.06-0.14,0.6-0.13l-0.6,0.13C87.62,29.92,87.83,30.05,87.8,30.12z M90.34,30.04l-0.6,0.26l0.34-0.17
			L90.34,30.04z M89.41,29.74c0.29,0.01,0.45,0.02,0.51,0.02C89.85,29.75,89.67,29.75,89.41,29.74l0.24,0.21
			c-0.33-0.05-0.42-0.16-0.47-0.21C89.27,29.74,89.35,29.74,89.41,29.74L89.41,29.74z M89.15,29.42l-0.08,0.08l-0.23-0.02
			l-0.68,0.14c0.17-0.06,0.06-0.14,0.05-0.19l0.63,0.05L89.15,29.42z M87.67,28.68c0-0.02,0-0.03-0.04-0.05
			C87.78,28.64,87.75,28.66,87.67,28.68c0.01,0.07-0.24,0.11,0.01,0.17c0.29,0.02,0.36-0.06,0.45-0.09c0.33,0.18,0.45,0.32,0.6,0.5
			c0.09-0.03-0.55-0.29-1.04-0.36l-0.09,0.03C87.07,28.83,87.5,28.74,87.67,28.68z M86.98,29.08c0.71,0.18-0.02,0.3-0.37,0.41
			C87.14,29.32,86.73,29.22,86.98,29.08z M85.05,29.31l0.19,0l-1.17,0.27L85.05,29.31z M84.45,29.94c0.31,0.13,0.43,0.21-0.12,0.27
			c0.18-0.06-0.3-0.08-0.41-0.15L84.45,29.94z M83.6,29.55c-0.54,0.12-0.15,0.17,0.15,0.24C82.72,29.84,82.57,29.6,83.6,29.55z
			 M82.47,29.98c0.93-0.07,0.35-0.09,0.48,0.04c-0.2,0-0.31-0.01-0.4-0.01c0.27,0.11-0.41,0.01,0,0
			C82.53,30.01,82.51,30,82.47,29.98z M80.68,28.83l0.4,0.1c0.03,0.11-0.58-0.04-0.75,0.01L80.68,28.83z M78.67,29.14l0.11,0.08
			c0.69,0.12,1.73-0.28,2.1,0.07c-0.59-0.1-1.68,0.09-2.52,0.13L78.67,29.14z M77,29.28l0.54-0.12l-0.61,0.2L77,29.28z M73.85,29.63
			l-0.1,0.61l-0.06-0.21L73.85,29.63z"/>
		<path class="st4" d="M73.52,67.21c-0.06-0.13-0.12-0.24-0.06,0.19C73.48,67.36,73.5,67.27,73.52,67.21z"/>
		<path class="st4" d="M125.09,32.07v-1.58c-0.25-0.47-0.49-0.82-0.66-0.79c0.06,0.16,0.11,0.36,0.17,0.58
			c-0.05,0.07-0.1,0.1-0.15,0.19C124.55,31.05,124.81,31.6,125.09,32.07z"/>
	</g>
	<g>
		<path class="st5" d="M124.49,69.59c0.1,0.17,0.34,0.23,0.6,0.23V68.5l-0.34-0.16l0.34-0.03v-1.37c-0.04,0.02-0.07,0.06-0.1,0.14
			C124.82,67.53,124.51,69.45,124.49,69.59z"/>
		<path class="st5" d="M124.9,62.11c0.03,0.26,0.1,0.58,0.2,0.88v-1.13C125.04,61.98,124.96,62.14,124.9,62.11z"/>
		<path class="st5" d="M114.53,64.12l-0.02,0.02C114.9,64.07,115.11,64.05,114.53,64.12z"/>
		<path class="st5" d="M119.19,62.36c1.01-0.39,1.81-0.84,2.22-1.21l-4.86,1.28c0.15-0.02,0.28-0.03,0.37-0.03
			c-0.39,0.03-1.06,0.27-1.37,0.44l0.88-0.11c-0.69,0.19-1.3,0.08-2.31,0.45c0.21,0.14-0.47,0.58,0.36,0.63
			c2.03-0.23,1.51-0.9,3.89-1.46C118.58,62.25,117.95,62.79,119.19,62.36z M119.37,61.75c0.33-0.12,0.6-0.14,0.52-0.03l-0.9,0.31
			C118.83,61.98,119.16,61.86,119.37,61.75z"/>
		<path class="st5" d="M125.09,78.52v-2.03c-0.25-0.65-0.49-1.23-0.66-1.56l0.17,1.24l-0.15,0.31
			C124.55,77.22,124.81,77.92,125.09,78.52z"/>
		<path class="st5" d="M124.69,90.38l0.4,0.94v-0.96C124.94,90.42,124.79,90.47,124.69,90.38z"/>
		<path class="st5" d="M99.05,68.21C99.03,68.24,99,68.27,99,68.3C99.13,68.24,99.5,68.13,99.05,68.21z"/>
		<path class="st5" d="M123.95,82.11l0.22-0.2c-0.05-0.48-0.08-0.97-0.08-1.29c-0.02,0.15-0.06,0.31-0.11,0.49
			C123.93,81.38,123.91,81.69,123.95,82.11z"/>
		<path class="st5" d="M101.73,66.35c0.48-0.02,0.95-0.17,1.25-0.33L101.73,66.35z"/>
		<polygon class="st5" points="98.99,68.34 99,68.34 98.99,68.34 		"/>
		<path class="st5" d="M98.97,68.31c-0.08,0-0.05,0.01,0.02,0.02c0-0.01,0.01-0.02,0.01-0.03C99,68.3,98.98,68.31,98.97,68.31z"/>
		<path class="st5" d="M73.26,75.76l-0.04-0.54c-0.02,0.05-0.08,0.1-0.26,0.17c0.04-0.05-0.12-0.21,0.2-0.28
			c-0.01-0.02,0.03,0,0.06,0.02l0-0.06c0.28,0.22,0.01,2.14,0.3,2.53l-0.3,2.15c0.11-0.07,0.27,0.29,0.3-0.06
			c-0.01-0.26-0.01-0.53-0.01-0.7c0.03,0.36,0.03,0.57,0.01,0.7c0.01,0.53,0.02,1,0.17,0.3c-0.72,5.14-0.02,10.42-0.41,15.49
			c0.03,0.34,0.13,0.15,0.19,0.01c-0.27,0.93,0.14,0.89,0.18,1.4l-0.39,1.36c0.12,0.55,0.24,0.12,0.32,0.16
			c0.08,2.58-0.31,5.1-0.07,7.19c-0.14,0.67-0.32-0.16-0.37,0.72c0.41-1.19,0.19,2.56,0.48,1.8c-0.43,0.85-0.09,3.16-0.69,2.78
			c-0.04,1.05,0.26,0.87,0.31,0.57c-0.02,1.22-0.03,2.21,0.16,3.2c-0.14,0.67,0.15,5.58-0.3,6.67c0.29-0.74,0.15,0.06,0.28,0.77
			l0.26-0.64l-0.03,1.61c0.02,0.33,0.01,0.42-0.01,0.42c-0.01,0.27-0.15-0.06-0.22,0.63c-0.02,1.09,0.13,1.15,0.26,1.75l0.04-0.17
			l0.02,0.74c-0.01,0.55-0.26-1.93-0.39-0.15c0.07,0.03,0.41,1.07,0.23,1.55c0.01-0.91-0.17-0.8-0.24-0.46l-0.02,1.28l0.33-0.42
			c-0.01,1.83-0.07,3.7-0.13,5.59c-0.03,0.95-0.05,1.91-0.08,2.87c-0.01,0.67-0.02,1.34-0.02,2.01c-0.18,0.19-0.14,0.86-0.19,1.46
			c0.19-0.13,0.32-0.16,0.13,0.23l-0.06-0.01c-0.29,0.29-0.35,0.45-0.22,0.44c0.12-0.01,0.45-0.21,0.74-0.5
			c-0.26,0.13,0.05-0.28,0.2-0.55c0.16-0.27,0.19-0.42-0.29-0.05c0.29-0.35,0.55-0.66,0.75-0.94c0.08-0.35,0.16-0.55,0.27-0.7
			c0.04-0.04,0.04-0.05,0.11-0.12c0.09-0.08,0.19-0.16,0.29-0.25c0.2-0.16,0.42-0.33,0.65-0.51c0.93-0.69,2.03-1.45,2.78-2.29
			c-0.1,0.13-0.1,0.19-0.1,0.23c1.33-1.52,3.48-2.75,3.75-3.16l0.27,0.07c1.06-1.4,1.19-1.56,2.8-2.78c0,0.05-0.13,0.25,0.14,0.08
			c0.26-0.46,0.53-0.92,1.6-1.79l0,0.1l1.61-1.46c0.42,0.58,2.52-2.79,3.48-2.61c0.19-0.45,1.34-1.54,1.81-2.09
			c-0.03-0.03,0.02-0.13,0.18-0.32c0.07,0.01-0.01,0.13-0.18,0.32c0.02,0.02,0.07,0.02,0.18-0.03c0.39-0.86,1.88-1.49,2.54-2.13
			c0.4-0.47,0.13-0.4-0.14-0.32c1.08-0.54,2.26-2.43,2.66-2.62c0.67-0.55,0.41,0,0.69-0.03c0.93-0.91-0.56-0.37,0.92-1.29
			c-0.13,0.16-0.4,0.42-0.26,0.36c0.54-0.39,1.92-0.52,2.32-1.08l-0.41,0.19c0.8-0.94,2.5-1.42,2.36-1.93l-0.22-0.1
			c1.75-1.14,0.61-0.65,2.36-1.84l0,0.05c0.67-0.64,1.21-0.75,1.33-1.33l-0.27,0.17c0.84-0.78,0.93-0.82,1.82-1.57
			c0.08-0.12,0.47-0.53,0.64-0.58c-0.14-0.27,1.95-1.89,2.35-2.22c-0.67,0.64-0.26,0.46,0.01,0.38c0.26-0.55,0.53-0.82,1.2-1.17
			c-0.15-0.37-0.27-0.78,0.83-1.78c-0.14,0.2-0.39,0.46-0.23,0.42c0.16-0.04,0.37-0.33,0.44-0.43c0.16-0.04-0.16,0.33,0.04,0.32
			c0.54-0.94,1.29-1.16,2.3-2.22c-0.28,0.39,0.06,0.19,0.27,0.18c-0.17-0.41,1.72-1.02,0.97-1.09c1.05-0.72,2.25-1.75,3.35-2.7
			c1.06-0.92,2.22-1.94,2.51-2.05c0.02-0.11,0.05-0.21,0.09-0.28c0.15-0.11-0.09-1.03-0.1-1.52l0.18,0.07
			c-0.32-1.44-0.12-1.12-0.44-2.82c0.21,0.7,0.31,0.41,0.48-0.3l-0.37-1.17l0.27-0.23c-0.11-0.48-0.06-1.01-0.02-1.55
			c0,0.26,0.03,0.12,0.08,0.1c-0.38-0.26-0.34-2.34-0.52-2.66c0.37-0.52-0.09-1.4,0.25-1.78c-0.05-0.17-0.09-0.39-0.13-0.63
			c-0.16,0.25-0.34,0.34-0.26-0.13c0-0.04,0-0.07-0.01-0.11l-0.19,0.18c-0.2,0.07,0.06-0.59,0.22-1.19c0.04-0.2,0.07-0.39,0.11-0.58
			c0-0.07,0-0.13,0-0.17c0.01,0.03,0.01,0.06,0.01,0.1c0.05-0.29,0.08-0.6,0-1.01c0.33-1.68-0.45-3.73,0-5.57
			c-0.05,0.28-0.07,0.67,0.01,0.78c-0.02-1.55,0.29-3.08,0.12-4.06l-0.2,0.07c-0.09-1.13-0.16-2.01-0.14-2.92l-0.23-0.05
			c0.08-1.33-0.28-4.18,0.19-4.99c-0.09-0.25-0.08-0.19-0.05-0.38c0.03-0.13,0.07-0.34,0.05-0.42l-0.02,0.01
			c0.04-0.07,0.07-0.15,0.1-0.22c-0.32,0.02-0.52,0.14-0.77,0.27c0.11-0.01,0.1,0,0.14,0.01l-0.04,0.06
			c-0.06,0.03-0.11,0.05-0.16,0.07c-0.11,0.04-0.23,0.08-0.34,0.1c-0.23,0.05-0.46,0.08-0.68,0.09c-0.33,0.08-0.7,0.14-1.19,0.18
			c0.11-0.21,0.6-0.15,1.19-0.18c0.42-0.1,0.75-0.21,1.09-0.34c-1.89,0.1-3.48,0.91-5.07,1.31l-0.03-0.05l-1.57,0.55
			c0.38-0.28-0.29,0.2-0.78,0.28c-0.49,0.22-1.33,0.39-1.96,0.44l-1.02,0.26c1.11-0.42-0.14-0.24-0.25-0.43l-0.61,0.34
			c-0.29-0.03,0.38-0.28-0.11-0.19c-0.41,0.23-1.7,0.56-2.06,0.89c0.08,0.04,0.24,0.04,0.45,0.03c0.05-0.03,0.05-0.02,0.02,0l0.05,0
			c0.24-0.04,0.38-0.05,0.46-0.06c0.18-0.03,0.37-0.07,0.57-0.13c-0.24,0.07-0.38,0.11-0.48,0.14c-0.05,0.04-0.34,0.1,0,0
			c0.02-0.01-0.01-0.02-0.09-0.01c-0.17,0.03-0.32,0.05-0.46,0.06c-0.02,0-0.03,0-0.06,0.01c-0.05,0.04-0.13,0.09-0.16,0.13
			c0.09-0.02,0.19-0.04,0.31-0.06c-0.3,0.12-0.34,0.11-0.31,0.06c-0.82,0.17-0.5,0.18-0.45,0.26c-1-0.08-1.46,0.27-2.25,0.08
			c1.06,0.18-2.11,0.56-1.42,0.82c-0.76-0.15-0.47,0.11-0.98-0.06c0.99-0.17,1.88-0.72,2.62-1.07l-0.81,0
			c0.41-0.51,1.75-0.31,2.17-0.56c-0.29,0.17-1,0.26-1.04,0.19l0.27,0.23c1.12-0.17,1.93-0.63,2.68-0.97
			c-0.75,0.1,0.85-0.41,0.27-0.47l-0.57,0.19c-0.09-0.01-0.09-0.04-0.05-0.08l-6.24,1.65c-0.09,0.3-1.37,0.75-0.95,0.85
			c-0.52,0.03-0.37-0.18-1.38,0.19c-0.61,0.34,0.86,0.09,1.16,0.12c-0.75,0.31-0.73,0.39-0.74,0.48l0.07,0.02l-0.08,0.02
			c-0.02,0.07-0.12,0.17-0.63,0.4c-0.51-0.02-0.79-0.02-1.16,0.04L99,68.34l0.04,0c0.22-0.02,0.42-0.04,0.61-0.04
			c-0.05,0.07-0.42,0.06-0.61,0.04c-0.26,0.04-0.53,0.08-0.8,0.11c-0.41,0.12-0.78,0.23-1.1,0.41c-0.48,0.13-0.31-0.03-0.26-0.11
			c-0.29,0.08-0.55,0.16-0.8,0.25c-0.13,0.08-0.25,0.17-0.42,0.24c0.05,0.02,0.07,0.04-0.05,0.02l0.05-0.02
			c-0.03-0.01-0.08-0.02-0.13-0.03c0.16-0.07,0.34-0.14,0.54-0.21c0.18-0.11,0.37-0.21,0.71-0.26c0.11-0.04,0.11-0.02,0.08,0.02
			c0.44-0.12,0.91-0.22,1.37-0.3c0.25-0.07,0.51-0.16,0.8-0.27c-1.12,0.17,0.79-0.5-0.71-0.05c0.54-0.24,0.22-0.32,1.15-0.58
			c0.52,0.09-0.23,0.38-0.43,0.65c0.7-0.21,1.1-0.32,1.43-0.38l0.31-0.11l-0.1,0.06l1.57-0.39l0.01-0.04
			c-0.72-0.16-1.33-0.62-0.69-0.96l-1.13,0.3c0.26-0.02,0.01,0.11-0.4,0.23l-0.05-0.1c0.04-0.02,0.08-0.03,0.12-0.04l-27.47,7.26
			v2.12C72.87,75.7,73.08,75.26,73.26,75.76z M111.85,64.86c1.34-0.49-0.48,0.56-0.26,0.24C111.75,65.15,111.59,64.88,111.85,64.86z
			 M107.22,66.22c0.19-0.01,0.33,0,0.69-0.1l-0.74,0.26C107.41,66.31,107.25,66.27,107.22,66.22z M108.87,64.66
			c0.13-0.05,0.23-0.1,0.21-0.14l0.86-0.16C109.97,64.43,109.39,64.54,108.87,64.66c-0.21,0.09-0.52,0.18-0.67,0.22
			C108.35,64.8,108.6,64.73,108.87,64.66z M106.23,65.21l-0.25,0.27l-0.24-0.18L106.23,65.21z M106.31,65.81
			c-0.54,0.24-1.08,0.47-0.98,0.16L105.23,66C105.75,65.82,106.21,65.63,106.31,65.81z M105.11,66.04c-0.28,0.1-0.52,0.26-0.49,0.13
			C104.79,66.14,104.95,66.09,105.11,66.04z M104.14,66.97l0.39-0.02l-0.41,0.23L104.14,66.97z M102.52,67.43l0.54-0.24l-0.66,0.49
			L102.52,67.43z M96.45,69.33c0.6-0.04,1.04-0.14,1.44-0.31c-0.37,0.21-0.77,0.44-1.27,0.6C96.93,69.45,96.17,69.55,96.45,69.33z
			 M91.43,70.38c0.07,0.08,0.36,0.13,0.34,0.21c-0.06-0.1-0.55-0.01-0.81,0L91.43,70.38c-0.06-0.07,0.05-0.16,0.71-0.32L91.43,70.38
			z M96.11,68.28l-0.06-0.1l0.68,0l-1.24,0.43C95.57,68.51,95.39,68.43,96.11,68.28z M94.9,69.68l-0.69,0.45l0.38-0.27L94.9,69.68z
			 M93.69,69.69c0.37-0.09,0.56-0.13,0.64-0.15c-0.09,0.02-0.31,0.08-0.63,0.15l0.34,0.12c-0.42,0.06-0.56-0.02-0.63-0.05
			c0.1-0.03,0.2-0.05,0.29-0.07L93.69,69.69z M93.28,69.47l-0.07,0.1l-0.29,0.06l-0.81,0.36c0.2-0.11,0.04-0.15,0.02-0.2l0.79-0.16
			L93.28,69.47z M91.3,69.23c-0.01-0.01-0.01-0.03-0.06-0.03C91.42,69.16,91.39,69.18,91.3,69.23c0.03,0.06-0.27,0.18,0.05,0.16
			c0.36-0.07,0.43-0.18,0.54-0.24c0.45,0.07,0.63,0.16,0.85,0.29c0.1-0.06-0.74-0.1-1.36-0.01l-0.1,0.06
			C90.58,69.58,91.09,69.34,91.3,69.23z M90.53,69.85c0.91-0.06,0.04,0.3-0.37,0.52C90.77,70.03,90.25,70.07,90.53,69.85z
			 M88.19,70.7l0.23-0.07l-1.39,0.64L88.19,70.7z M88.15,71.1c-0.17,0.14-0.27,0.16-0.33,0.14l-0.71,0.3
			c0.3-0.15,0.42-0.29,0.38-0.17c0.18-0.26,0.22-0.15,0.33-0.13L88.15,71.1z M87.57,71.51c0.42,0.02,0.58,0.06-0.09,0.31
			c0.21-0.11-0.39,0.03-0.55-0.01L87.57,71.51z M86.44,71.42c-0.64,0.29-0.15,0.21,0.24,0.18C85.41,71.98,85.17,71.8,86.44,71.42z
			 M85.14,72.2c1.14-0.38,0.42-0.21,0.61-0.12c-0.25,0.06-0.39,0.1-0.49,0.12c0.36,0.02-0.5,0.14,0,0
			C85.22,72.2,85.19,72.2,85.14,72.2z M82.66,71.67l0.52-0.03c0.06,0.1-0.73,0.15-0.93,0.26L82.66,71.67z M80.24,72.62l0.16,0.04
			c0.88-0.11,2.08-0.84,2.61-0.62c-0.75,0.1-2.07,0.64-3.1,0.95L80.24,72.62z M78.2,73.31l0.64-0.29l-0.71,0.4L78.2,73.31z
			 M73.75,76.17l-0.06-0.27l0.15-0.5L73.75,76.17z M73.44,74.04l0.26,0.46l-0.29,0.18C73.48,74.55,73.45,74.22,73.44,74.04z"/>
		<path class="st5" d="M73.46,123.62l0.06-0.25C73.46,123.21,73.4,123.05,73.46,123.62z"/>
		<path class="st5" d="M113.86,104.8l-1.01,1.1c0.13-0.06,0.33-0.14,0.56-0.23l0.24-0.21c0.07-0.1,0.15-0.21,0.22-0.3
			C113.97,104.91,114.02,104.73,113.86,104.8z"/>
		<path class="st5" d="M114.02,104.93c-0.05,0.07-0.1,0.15-0.16,0.24c-0.02,0.06-0.05,0.12-0.08,0.18l0.53-0.47
			C114.29,104.83,114.21,104.83,114.02,104.93z"/>
		<path class="st5" d="M103.29,65.94c0,0-0.01,0.01-0.01,0.02l0.1-0.04L103.29,65.94z"/>
	</g>
	<g>
		<path class="st6" d="M95.74,125.83c0,0,0,0.02,0,0.02l0.07-0.08L95.74,125.83z"/>
		<path class="st6" d="M113.57,110.46c0.18-0.2,0.36-0.46,0.52-0.72l-0.77,0.67C113.42,110.4,113.56,110.38,113.57,110.46z"/>
		<path class="st6" d="M125.09,129.59c-0.06,0-0.11,0.06-0.15,0.26c0.02,0.08,0.04,0.17,0.07,0.27c0.03,0.05,0.06,0.11,0.08,0.17
			V129.59z"/>
		<path class="st6" d="M125.09,130.8v-0.32c-0.03-0.12-0.06-0.24-0.08-0.35c-0.12-0.24-0.22-0.38-0.27-0.21l0.15,1.46
			C124.94,131.23,125.01,131.03,125.09,130.8z"/>
		<path class="st6" d="M92.99,129.78c-0.06,0.04-0.04,0.03,0.03,0.01c-0.01-0.01,0-0.02,0-0.04
			C93.01,129.76,92.99,129.77,92.99,129.78z"/>
		<path class="st6" d="M125.09,110.71c-0.15,0.05-0.3,0.09-0.4,0.01l0.4,0.89V110.71z"/>
		<polygon class="st6" points="93.01,129.8 93.02,129.79 93.01,129.79 		"/>
		<path class="st6" d="M124.16,103.41c-0.05-0.17-0.08-0.33-0.08-0.45c-0.02,0.08-0.06,0.2-0.11,0.32
			c-0.04,0.14-0.06,0.25-0.03,0.35C124.02,103.57,124.09,103.49,124.16,103.41z"/>
		<path class="st6" d="M95.5,126.04l-0.94,0.82C94.97,126.63,95.31,126.31,95.5,126.04z"/>
		<path class="st6" d="M107.27,116.23c0.13-0.19-0.19,0.56,0.7-0.35c0.71-0.78,1.19-1.49,1.39-1.99l-3.63,3.18
			c0.12-0.09,0.23-0.15,0.3-0.18c-0.33,0.19-0.8,0.69-1,0.97l0.72-0.47c-0.52,0.47-1.09,0.63-1.8,1.38
			c0.24,0.03-0.17,0.72,0.57,0.41C106.17,118.11,105.45,117.74,107.27,116.23z M107.88,115.25c0.24-0.25,0.46-0.38,0.43-0.25
			l-0.65,0.66C107.51,115.69,107.75,115.44,107.88,115.25z"/>
		<path class="st6" d="M123.31,102.54c0.29-0.38,0.77-1.17,1.38-2.09l-1.39,1.22c-0.43,0.72-0.61,1.22-0.66,1.49l0.51-0.68
			C123.21,102.49,123.26,102.51,123.31,102.54z"/>
		<path class="st6" d="M117.95,106.83l-0.24-0.27l-0.93,0.82c0.04,0.02,0.09,0.02,0.16,0c0.41-0.13,1.92-1.02,2.03-1.09
			c0.05-0.19-0.06-0.42-0.23-0.64l-0.9,0.79L117.95,106.83z"/>
		<path class="st6" d="M73.26,147.69l-0.05-0.64c0.28,0.21,0.01,2.02,0.3,2.39l-0.3,2.03c0.11-0.06,0.27,0.27,0.3-0.06
			c-0.01-0.24-0.01-0.5-0.01-0.66c0.03,0.34,0.03,0.54,0.01,0.66c0.01,0.5,0.02,0.94,0.17,0.28c-0.72,4.86-0.02,9.85-0.41,14.63
			c0.03,0.32,0.13,0.14,0.19,0.01c-0.27,0.94,0.14,0.68,0.18,0.9c-0.12,0.21-0.23,0.49-0.35,0.84l0.05,0.05
			c0.4-0.13,0.26-0.26,0.36-0.34c0.14-0.01,0.27-0.01,0.4-0.01l0.52,0.02c0.55,0.03,1.1,0.06,1.64,0.09c1.07,0.06,2.08,0.1,3-0.02
			c0.59,0.15-0.14,0.34,0.63,0.39c-1.05-0.44,2.25-0.21,1.58-0.51c0.75,0.46,2.79,0.1,2.45,0.74c0.93,0.04,0.77-0.27,0.5-0.33
			c1.07,0.02,1.94,0.03,2.82-0.17c0.59,0.15,4.91-0.16,5.87,0.33c-0.65-0.32,0.05-0.16,0.68-0.3l-0.57-0.28l1.42,0.03
			c0.29-0.03,0.37-0.01,0.37,0.01c0.24,0.01-0.06,0.16,0.55,0.23c0.96,0.02,1.01-0.14,1.54-0.28l-0.15-0.04l0.65-0.03
			c0.48,0.01-1.7,0.28-0.13,0.42c0.02-0.08,0.95-0.44,1.37-0.24c-0.8-0.01-0.7,0.18-0.41,0.26l1.12,0.02l-0.37-0.35
			c3.22,0.02,6.57,0.27,10.01,0.25c-0.05,0.31,2.44,0.02,2.13,0.47l-0.13-0.04c-0.84,0.04,0.25,0.36,0.93,0.31
			c-0.72-0.14,1.29-0.45-0.46-0.52l1.35-0.21c0.75-0.87,3.6,0.07,5.65-0.21c-0.14,0.03-0.18,0.08-0.2,0.11
			c1.82-0.28,4.08,0.23,4.5,0.1l0.16,0.24c0.76-0.21,0.78-0.31,1.11-0.33c-0.01-0.24,0.02-0.47,0.08-0.94
			c0.04,0.01,0.1,0.17,0.15-0.03c-0.16-0.47-0.33-0.96-0.28-2.32l0.07,0.06l-0.04-2.13c0.69,0.02-0.42-3.65,0.32-4.29
			c-0.2-0.42-0.26-1.98-0.36-2.67c-0.04,0.01-0.08-0.09-0.12-0.33c0.05-0.05,0.08,0.09,0.12,0.33c0.03,0,0.06-0.05,0.09-0.16
			c-0.37-0.82,0.12-2.36,0.07-3.27c-0.09-0.59-0.21-0.34-0.32-0.08c0.29-1.17-0.33-3.23-0.2-3.66c0.03-0.86,0.26-0.32,0.41-0.55
			c-0.07-1.27-0.62,0.21-0.35-1.49c0.03,0.2,0.05,0.57,0.09,0.42c0.06-0.65,0.85-1.82,0.69-2.47l-0.12,0.43
			c-0.18-1.19,0.56-2.82,0.1-3.01l-0.22,0.11c0.28-2.05-0.08-0.87,0.17-2.95l0.04,0.03c-0.04-0.91,0.23-1.4-0.12-1.84l-0.05,0.31
			c-0.03-1.12,0-1.22,0.02-2.37c-0.03-0.13-0.08-0.69-0.01-0.85c-0.29-0.05-0.13-2.66-0.12-3.17c0.04,0.91,0.16,0.48,0.28,0.22
			c-0.23-0.53-0.26-0.9-0.09-1.64c-0.36-0.11-0.74-0.25-0.76-1.71c0.05,0.23,0.08,0.58,0.16,0.44c0.07-0.15-0.01-0.49-0.03-0.6
			c0.07-0.15,0.13,0.32,0.25,0.16c-0.34-0.99-0.02-1.7-0.15-3.13c0.11,0.45,0.18,0.06,0.3-0.1c-0.41-0.11,0.35-1.96-0.17-1.41
			c0.31-2.8,0.02-7.11,0.36-8.2c0.15-0.29-0.09-1.07-0.1-1.56l0.18,0.07c-0.32-1.36-0.12-1.06-0.44-2.67
			c0.21,0.66,0.31,0.39,0.48-0.28l-0.37-1.1l0.27-0.21c-0.11-0.45-0.06-0.96-0.02-1.46c0,0.24,0.03,0.11,0.08,0.1
			c-0.38-0.24-0.34-2.21-0.52-2.52c0.19-0.25,0.16-0.58,0.14-0.89c-0.01-0.16-0.03-0.31-0.02-0.44c0.01-0.13,0.05-0.14,0.13-0.22
			c-0.05-0.08-0.09-0.18-0.13-0.27c-0.16,0.19-0.34,0.27-0.26,0.09l-0.01-0.03c-0.06,0.06-0.13,0.12-0.19,0.16
			c-0.2,0.12,0.06-0.09,0.22-0.52c0.04-0.12,0.07-0.24,0.11-0.36c0-0.03,0-0.05,0-0.07c0,0,0.01,0.01,0.01,0.02
			c0.05-0.19,0.08-0.39,0-0.41c0.02-0.08,0.03-0.16,0.05-0.24c-0.17,0.02-0.58,0.54-0.8,0.86c-0.12,0.17-0.21,0.3-0.31,0.39
			c0,0-0.23,0.19-0.38,0.29c-0.17,0.11-0.34,0.21-0.52,0.3c0.22-0.13,0.5-0.35,0.52-0.47c-1.04,0.94-2.28,1.6-2.85,2.33l0.17,0.13
			c-0.72,0.75-1.27,1.33-1.9,1.87l0.11,0.22c-0.96,0.72-2.67,2.73-3.52,2.83c-0.11,0.34-1.29,1.05-1.76,1.55l-0.24-0.03
			c-0.71,0.54-1.08,0.96-1.45,1.35c0.07-0.04,0.14-0.08,0.21-0.12c-0.26,0.41-0.65,0.68-1.01,0.89c-0.25,0.21-0.55,0.42-0.95,0.67
			c0.01-0.23,0.46-0.39,0.95-0.67c0.32-0.26,0.56-0.51,0.8-0.76c-1.59,0.89-2.62,2.29-3.83,3.32l-0.04-0.03l-1.13,1.16
			c0.22-0.41-0.17,0.3-0.56,0.58c-0.33,0.41-0.98,0.92-1.51,1.22l-0.78,0.67c0.78-0.85-0.22-0.16-0.4-0.28l-0.39,0.56
			c-0.26,0.09,0.22-0.41-0.17-0.13c-0.26,0.38-1.24,1.23-1.41,1.66c0.08,0,0.23-0.06,0.4-0.16c0.03-0.05,0.03-0.04,0.01-0.01
			l0.04-0.02c0.19-0.14,0.31-0.21,0.37-0.24c0.14-0.11,0.29-0.22,0.44-0.35c-0.18,0.16-0.28,0.26-0.36,0.33
			c-0.03,0.05-0.25,0.24,0,0c0.01-0.02-0.02-0.01-0.08,0.03c-0.13,0.1-0.26,0.18-0.37,0.24c-0.02,0.01-0.03,0.02-0.05,0.03
			c-0.03,0.05-0.07,0.14-0.08,0.18c0.07-0.05,0.14-0.11,0.24-0.18c-0.21,0.23-0.25,0.24-0.24,0.18c-0.64,0.5-0.36,0.37-0.28,0.43
			c-0.89,0.35-1.15,0.86-1.91,1.02c0.98-0.29-1.59,1.4-0.89,1.33c-0.72,0.19-0.36,0.3-0.87,0.36c0.78-0.57,1.32-1.44,1.82-2.07
			l-0.7,0.35c0.15-0.63,1.38-1.02,1.64-1.42c-0.18,0.27-0.75,0.66-0.82,0.61l0.33,0.09c0.89-0.63,1.41-1.38,1.91-2.01
			c-0.61,0.41,0.56-0.72,0.04-0.53l-0.41,0.41c-0.08,0.03-0.09,0-0.08-0.05l-4.7,4.12c0.05,0.3-0.88,1.25-0.47,1.17
			c-0.44,0.25-0.39,0-1.11,0.75c-0.39,0.57,0.78-0.28,1.05-0.38c-0.52,0.6-0.47,0.66-0.44,0.74l0.07-0.01l-0.06,0.05
			c0.01,0.07-0.03,0.2-0.38,0.62c-0.45,0.2-0.69,0.31-0.98,0.53l-1.07,1.09l0.03-0.01c0.18-0.11,0.35-0.22,0.51-0.3
			c-0.02,0.08-0.34,0.24-0.51,0.3l-0.64,0.44c-0.31,0.29-0.58,0.54-0.78,0.83c-0.36,0.32-0.28,0.11-0.27,0.01
			c-0.21,0.19-0.41,0.38-0.59,0.56c-0.08,0.13-0.15,0.25-0.26,0.39c0.05-0.01,0.08,0-0.03,0.04l0.03-0.04
			c-0.03,0-0.08,0.01-0.12,0.03c0.11-0.13,0.24-0.28,0.38-0.42c0.11-0.18,0.23-0.35,0.51-0.54c0.08-0.08,0.08-0.06,0.08-0.02
			c0.33-0.29,0.69-0.58,1.05-0.84c0.18-0.17,0.38-0.36,0.58-0.58c-0.89,0.63,0.47-0.78-0.63,0.25c0.37-0.44,0.06-0.38,0.76-1.01
			c0.49-0.14-0.04,0.44-0.1,0.76c0.52-0.49,0.82-0.76,1.08-0.95l0.23-0.23l-0.07,0.09l1.2-1.02l-0.01-0.04
			c-0.68,0.16-1.4,0.01-0.98-0.57l-0.85,0.75c0.22-0.13,0.05,0.1-0.25,0.37l-0.09-0.06c0.02-0.03,0.05-0.06,0.08-0.09l-20.7,18.14
			v2.01C72.87,147.63,73.08,147.22,73.26,147.69z M102.67,121.23c0.95-1-0.19,0.71-0.12,0.33
			C102.7,121.53,102.46,121.36,102.67,121.23z M99.8,124.02l-0.53,0.54c0.17-0.16,0.02-0.12-0.02-0.16
			C99.4,124.32,99.53,124.27,99.8,124.02z M100.03,122.32c0.09-0.1,0.15-0.19,0.12-0.21l0.67-0.5
			C100.88,121.64,100.42,121.98,100.03,122.32c-0.15,0.17-0.38,0.38-0.49,0.48C99.63,122.67,99.82,122.49,100.03,122.32z
			 M97.98,123.93l-0.11,0.35l-0.28-0.06L97.98,123.93z M98.29,124.43c-0.37,0.44-0.74,0.88-0.78,0.57l-0.07,0.06
			C97.81,124.68,98.13,124.31,98.29,124.43z M97.35,125.14c-0.2,0.21-0.35,0.45-0.36,0.33C97.11,125.37,97.23,125.25,97.35,125.14z
			 M97.22,126.2l-0.26,0.37l-0.07-0.19L97.22,126.2z M96.05,127.05l-0.37,0.72l0-0.28L96.05,127.05z M92.35,130.87
			c-0.23,0.34-0.49,0.72-0.85,1.08c0.2-0.28-0.41,0.13-0.26-0.19C91.73,131.47,92.07,131.19,92.35,130.87z M90.51,130.96l-0.09-0.06
			l0.59-0.28l-0.89,0.91C90.14,131.4,89.95,131.4,90.51,130.96z M84.52,137.79c0.13-0.19-0.33,0.19-0.48,0.22l0.43-0.53
			C84.85,137.32,85,137.29,84.52,137.79z M84.09,137.7c0.19-0.26,0.24-0.43,0.26-0.31c0.05-0.31,0.13-0.23,0.23-0.25l0.23-0.27
			c-0.09,0.2-0.17,0.25-0.23,0.27L84.09,137.7z M87.71,134.87c-0.09-0.06-0.48,0.22-0.7,0.35l0.32-0.39
			c-0.08-0.03-0.02-0.16,0.48-0.58l-0.48,0.58C87.43,134.87,87.7,134.78,87.71,134.87z M89.84,133.02l0.2-0.28l-0.41,0.69
			L89.84,133.02z M89,133.25c0.28-0.23,0.43-0.36,0.49-0.41c-0.07,0.06-0.24,0.2-0.48,0.41l0.34-0.03
			c-0.34,0.24-0.49,0.22-0.56,0.22c0.08-0.07,0.15-0.13,0.22-0.19L89,133.25z M88.56,133.22l-0.02,0.13l-0.23,0.18l-0.55,0.67
			c0.13-0.19-0.03-0.15-0.07-0.19l0.62-0.48L88.56,133.22z M86.69,133.85c0.14-0.12,0.12-0.08,0.06,0.01
			c0.05,0.04-0.16,0.28,0.11,0.12c0.28-0.22,0.3-0.34,0.37-0.44c0.41-0.13,0.61-0.13,0.85-0.1c0.06-0.09-0.68,0.22-1.18,0.57
			l-0.06,0.09c-0.57,0.37-0.22-0.06-0.09-0.24C86.74,133.85,86.73,133.84,86.69,133.85z M86.34,134.73c0.76-0.44,0.15,0.25-0.1,0.63
			C86.63,134.79,86.19,135.05,86.34,134.73z M84.67,136.49l0.17-0.16l-0.93,1.16L84.67,136.49z M83.46,137.87
			c-0.43,0.53-0.04,0.25,0.28,0.06C82.81,138.81,82.52,138.75,83.46,137.87z M82.66,139.13c0.83-0.82,0.28-0.36,0.48-0.36
			c-0.19,0.16-0.29,0.25-0.37,0.32c0.32-0.13-0.38,0.34,0,0C82.73,139.1,82.71,139.11,82.66,139.13z M80.3,139.7l0.44-0.25
			c0.09,0.06-0.57,0.44-0.69,0.63L80.3,139.7z M78.61,141.58l0.15-0.03c0.72-0.47,1.45-1.63,2-1.67c-0.61,0.41-1.52,1.45-2.28,2.17
			L78.61,141.58z M77.14,143.06l0.43-0.53l-0.45,0.66L77.14,143.06z M73.47,147.14c0.01-0.06-0.19-0.14,0.06-0.33
			C73.49,146.78,73.84,146.77,73.47,147.14z M73.75,148.08l-0.06-0.26l0.15-0.47L73.75,148.08z M73.44,146.07l0.26,0.44l-0.29,0.17
			C73.48,146.55,73.45,146.23,73.44,146.07z"/>
		<path class="st6" d="M94.9,167.87c-0.14,0.07-0.28,0.13,0.22,0.06L94.9,167.87z"/>
		<path class="st6" d="M104.68,119.43l-0.01,0.03C104.98,119.23,105.15,119.12,104.68,119.43z"/>
		<path class="st6" d="M93.01,129.65c-0.01,0.04-0.01,0.08-0.01,0.11C93.1,129.65,93.37,129.4,93.01,129.65z"/>
	</g>
	<g>
		<path class="st7" d="M65.36,28.63c-0.42-0.07-1.2-0.01-1.57,0.08l0.97,0.12c-0.79,0.01-1.41-0.25-2.58-0.15
			c0.2,0.19-0.65,0.44,0.24,0.7c1.12,0.15,1.57,0.02,2.09-0.12c0.5-0.15,1.18-0.33,2.17-0.29c0.2-0.05-0.48,0.26,0.27,0.22
			c0,0.05,0.01,0.1,0.01,0.16c0.09,0.51,0.24,1.12,0.42,1.76c0.05,0.17,0.11,0.32,0.17,0.44v-2.98h-2.59
			C65.13,28.58,65.27,28.6,65.36,28.63z M67.5,29.22c0.03,0.37-0.02,0.67-0.1,0.6l-0.07-0.91C67.41,28.68,67.44,29.01,67.5,29.22z"
			/>
		<path class="st7" d="M67.55,89.66v-0.35c-0.03-0.13-0.06-0.27-0.09-0.39c-0.13-0.26-0.23-0.43-0.28-0.23l0.16,1.61
			C67.38,90.15,67.46,89.92,67.55,89.66z"/>
		<path class="st7" d="M67.55,88.33c-0.06,0-0.12,0.07-0.16,0.29c0.02,0.09,0.05,0.19,0.07,0.3c0.03,0.06,0.06,0.12,0.09,0.19V88.33
			z"/>
		<path class="st7" d="M67.34,37.78c0.03,0.31,0.11,0.66,0.21,0.98v-1.18C67.49,37.68,67.41,37.82,67.34,37.78z"/>
		<path class="st7" d="M66.34,58.77l0.23-0.21c-0.05-0.5-0.08-1.01-0.08-1.35c-0.02,0.15-0.06,0.33-0.11,0.51
			C66.33,58,66.3,58.33,66.34,58.77z"/>
		<path class="st7" d="M49.55,28.56h-1.42C48.65,28.67,49.18,28.64,49.55,28.56z"/>
		<path class="st7" d="M62.35,29.69c0.44,0.04,0.67,0.08,0.03-0.01L62.35,29.69z"/>
		<path class="st7" d="M67.55,55.02v-2.14c-0.26-0.68-0.52-1.29-0.69-1.63l0.18,1.3l-0.16,0.32C66.98,53.65,67.25,54.4,67.55,55.02z
			"/>
		<path class="st7" d="M67.55,67.41c-0.16,0.06-0.31,0.1-0.42,0.01l0.42,0.99V67.41z"/>
		<path class="st7" d="M67.55,45.9v-1.38l-0.36-0.17l0.36-0.03v-1.43c-0.04,0.02-0.07,0.07-0.11,0.15c-0.18,0.47-0.5,2.48-0.53,2.63
			C67.02,45.84,67.27,45.9,67.55,45.9z"/>
		<path class="st7" d="M44.81,29.68c-0.03,0.02-0.07,0.05-0.08,0.08C44.89,29.73,45.3,29.72,44.81,29.68z"/>
		<path class="st7" d="M49.91,28.56c0,0-0.01,0.01-0.01,0.01l0.11-0.01H49.91z"/>
		<polygon class="st7" points="44.71,29.79 44.72,29.79 44.71,29.79 		"/>
		<path class="st7" d="M44.7,29.76c-0.08-0.02-0.06,0,0.01,0.03c0-0.01,0.02-0.02,0.02-0.03C44.72,29.76,44.71,29.76,44.7,29.76z"/>
		<path class="st7" d="M18.38,78.06l-0.19-0.19C18.02,77.85,17.85,77.82,18.38,78.06z"/>
		<path class="st7" d="M15.75,30.37l-0.05-0.71c0.3,0.24,0.01,2.24,0.32,2.65l-0.31,2.25c0.11-0.07,0.28,0.3,0.32-0.06
			c-0.01-0.27-0.01-0.55-0.02-0.73c0.03,0.38,0.03,0.6,0.02,0.73c0.01,0.56,0.02,1.04,0.18,0.31c-0.76,5.38-0.02,10.91-0.43,16.21
			c0.03,0.36,0.13,0.15,0.2,0.01c-0.29,0.98,0.15,0.93,0.19,1.47l-0.42,1.43c0.12,0.58,0.25,0.13,0.33,0.17
			c0.08,2.7-0.32,5.34-0.08,7.53c-0.15,0.7-0.33-0.17-0.39,0.75c0.43-1.25,0.2,2.68,0.5,1.88c-0.46,0.89-0.1,3.31-0.73,2.91
			c-0.04,1.1,0.27,0.91,0.33,0.59c-0.02,1.28-0.03,2.31,0.17,3.35c-0.06,0.29-0.05,1.31-0.04,2.49c0.01,1.16,0.01,2.68-0.09,3.11
			c0.19,0.16,0.35,0.33,0.43,0.49c-0.24-0.51,0.03-0.17,0.82,0.14l-0.43-0.58l1.41,0.88c0.3,0.15,0.38,0.21,0.36,0.23
			c0.23,0.16-0.14,0.1,0.44,0.53c0.96,0.6,1.08,0.5,1.69,0.69l-0.13-0.12l0.67,0.37c0.48,0.3-1.85-0.79-0.34,0.28
			c0.06-0.05,1.17,0.19,1.5,0.62c-0.8-0.5-0.79-0.27-0.54-0.02l1.12,0.7l-0.2-0.53c3.23,1.97,6.47,4.21,9.94,6.27
			c-0.2,0.24,2.44,1.49,1.9,1.69l-0.11-0.12c-0.87-0.47,0.07,0.46,0.78,0.83c-0.65-0.56,1.52,0.39-0.2-0.73l1.46,0.63
			c1.19-0.29,3.58,2.24,5.78,3.24c-0.16-0.06-0.22-0.04-0.25-0.03c1.97,0.86,3.98,2.67,4.47,2.81l0.04,0.3
			c1.75,0.63,1.95,0.71,3.74,1.96c-0.04,0.02-0.29-0.05-0.02,0.17c0.54,0.12,1.08,0.24,2.33,1.05l-0.09,0.03l2.02,1.17
			c-0.38,0.62,3.64,1.67,3.84,2.72c0.5,0.05,1.99,0.87,2.69,1.17c0.02-0.04,0.13-0.02,0.37,0.08c0.02,0.07-0.13,0.03-0.37-0.08
			c-0.01,0.03,0.01,0.08,0.1,0.18c0.96,0.12,2.15,1.44,3.02,1.91c0.6,0.25,0.42,0,0.25-0.25c1.5,1.27,1.72,0.63,1.86,0.87
			c0.08,0.06,0.15,0.14,0.21,0.23c0.09,0.11,0.24,0.47,0.35,0.57c-0.07-0.8-0.65-0.89-0.37-1.17c0.03,0.09,0.06,0.27,0.1,0.26
			c0.03-0.09,0.25-0.11,0.45-0.37c0.19-0.2,0.36-0.79,0.28-1.14l-0.13,0.48c-0.19-1.32,0.59-3.12,0.1-3.33l-0.23,0.12
			c0.3-2.27-0.09-0.96,0.17-3.27l0.04,0.03c-0.04-1,0.24-1.55-0.13-2.04L66.92,97c-0.03-1.25,0-1.36,0.02-2.63
			c-0.03-0.15-0.09-0.76-0.01-0.94c-0.3-0.06-0.14-2.95-0.12-3.51c0.04,1,0.17,0.53,0.3,0.24c-0.25-0.59-0.27-1-0.09-1.82
			c-0.38-0.12-0.78-0.28-0.8-1.9c0.06,0.25,0.09,0.64,0.17,0.48c0.08-0.16-0.01-0.54-0.04-0.67c0.08-0.16,0.14,0.36,0.27,0.18
			c-0.36-1.09-0.03-1.89-0.15-3.47c0.11,0.5,0.19,0.07,0.32-0.11c-0.43-0.12,0.37-2.17-0.18-1.56c0.33-3.1,0.02-7.87,0.38-9.08
			c0.15-0.33-0.1-1.19-0.1-1.73l0.19,0.07c-0.34-1.51-0.13-1.18-0.47-2.95c0.22,0.74,0.33,0.43,0.5-0.31l-0.39-1.22l0.29-0.24
			c-0.11-0.5-0.07-1.06-0.02-1.62c0,0.27,0.03,0.12,0.08,0.11c-0.4-0.27-0.35-2.45-0.55-2.79c0.39-0.55-0.1-1.46,0.27-1.86
			c-0.05-0.18-0.1-0.41-0.14-0.66c-0.17,0.26-0.36,0.36-0.28-0.13c0-0.04,0-0.07-0.01-0.12l-0.21,0.19
			c-0.21,0.08,0.06-0.62,0.24-1.24c0.04-0.21,0.08-0.41,0.11-0.61c0-0.07,0-0.13,0-0.18c0.01,0.03,0.01,0.07,0.01,0.11
			c0.05-0.31,0.08-0.62,0-1.06c0.35-1.75-0.48-3.9,0-5.83c-0.05,0.29-0.07,0.7,0.01,0.81c-0.02-1.62,0.3-3.23,0.13-4.25l-0.21,0.07
			c-0.1-1.19-0.16-2.1-0.15-3.06l-0.24-0.05c0.09-1.39-0.3-4.37,0.2-5.22c-0.19-0.34,0.06-1.92-0.01-2.71l0.18-0.2
			c0.06-1.03-0.01-1.67-0.06-2.28c-0.02,0.1-0.03,0.18-0.05,0.28c-0.14-0.53-0.09-1.07,0-1.55c0.01-0.38,0.04-0.8,0.12-1.34
			c0.17,0.17-0.01,0.69-0.12,1.34c-0.01,0.48,0.01,0.88,0.05,1.27c0.15-0.82,0.18-1.63,0.17-2.4c-0.01-0.48-0.03-0.57-0.05-0.72
			l-0.06-0.4c-0.17,0.02-0.31,0.03-0.44,0.03l0.01-0.05c-0.18,0.02-0.11,0.04-0.51,0.07l-0.91,0.07c0.48-0.17-0.36,0.12-0.91,0.07
			c-0.58,0.09-1.52,0.04-2.2-0.08l-1.16-0.01c1.29-0.13-0.09-0.27-0.16-0.49l-0.74,0.17c-0.3-0.1,0.48-0.17-0.07-0.22
			c-0.5,0.12-1.96,0.11-2.42,0.33c0.07,0.05,0.25,0.11,0.47,0.15c0.06-0.01,0.06-0.01,0.02,0l0.05,0.01
			c0.27,0.03,0.42,0.05,0.5,0.06c0.2,0.02,0.41,0.02,0.64,0.02c-0.27,0.01-0.43,0.01-0.55,0.01c-0.06,0.02-0.39,0.01,0,0
			c0.02-0.01-0.01-0.02-0.09-0.03c-0.19-0.02-0.36-0.04-0.5-0.06c-0.02,0-0.03,0-0.06-0.01c-0.06,0.02-0.16,0.06-0.2,0.09
			c0.1,0.01,0.21,0.01,0.34,0.02c-0.35,0.04-0.39,0.01-0.34-0.02c-0.92-0.05-0.58,0.04-0.55,0.14c-1.05-0.34-1.63-0.11-2.43-0.51
			c1.09,0.45-2.4,0-1.72,0.43c-0.78-0.34-0.53-0.02-1.03-0.31c1.1,0.09,2.19-0.22,3.07-0.37l-0.87-0.2
			c0.57-0.39,1.95,0.14,2.47,0.01c-0.35,0.09-1.13,0-1.16-0.09l0.23,0.3c1.24,0.12,2.23-0.11,3.11-0.26
			c-0.83-0.1,1.01-0.18,0.4-0.39l-0.66,0.04c-0.09-0.03-0.08-0.06-0.04-0.09h-7.09c-0.17,0.27-1.65,0.38-1.23,0.59
			c-0.57-0.1-0.36-0.27-1.52-0.17c-0.74,0.17,0.9,0.31,1.21,0.42c-0.88,0.11-0.88,0.19-0.91,0.27l0.08,0.04l-0.09,0
			c-0.04,0.06-0.17,0.13-0.77,0.23c-0.54-0.15-0.84-0.23-1.25-0.26l-1.72,0.11l0.04,0.01c0.24,0.03,0.46,0.07,0.66,0.11
			c-0.07,0.05-0.47-0.05-0.66-0.11c-0.29-0.03-0.59-0.06-0.89-0.09c-0.47,0.01-0.9,0.02-1.28,0.11c-0.55,0.01-0.33-0.11-0.26-0.17
			c-0.33,0-0.63,0.02-0.91,0.04c-0.16,0.05-0.31,0.1-0.51,0.13c0.05,0.03,0.07,0.05-0.06,0.01l0.06-0.01
			c-0.03-0.02-0.08-0.04-0.13-0.06c0.19-0.03,0.4-0.05,0.64-0.07c0.22-0.06,0.45-0.11,0.83-0.07c0.12-0.01,0.12,0.01,0.09,0.04
			c0.5,0,1.03,0.02,1.53,0.06c0.29-0.01,0.59-0.02,0.93-0.05c-1.24-0.12,0.97-0.28-0.75-0.23c0.63-0.09,0.32-0.25,1.38-0.26
			c0.53,0.22-0.34,0.31-0.62,0.52c0.81-0.02,1.26-0.03,1.62,0l0.36-0.02l-0.12,0.03l1.78,0.03l0.02-0.04
			c-0.73-0.34-1.27-0.94-0.5-1.11h-1.29c0.28,0.05-0.02,0.11-0.48,0.12l-0.03-0.11c0.04-0.01,0.09-0.01,0.14-0.01H15.94l0.28,0.49
			l-0.31,0.19c0.07-0.14,0.04-0.49,0.03-0.68h-0.83v1.39c0.05-0.04-0.07-0.24,0.28-0.22c-0.01-0.05,0.31,0.18-0.28,0.22v0.83
			C15.34,30.3,15.56,29.84,15.75,30.37z M58.99,29.89c0.16,0.08,0.05-0.22,0.34-0.17C60.88,29.59,58.68,30.14,58.99,29.89z
			 M54.05,29.84c0.21,0.04,0.36,0.09,0.77,0.08l-0.85,0.06C54.23,29.98,54.06,29.9,54.05,29.84z M56.2,28.76
			c0.15-0.02,0.27-0.04,0.26-0.08l0.96,0.07C57.43,28.81,56.78,28.77,56.2,28.76c-0.25,0.03-0.6,0.04-0.77,0.04
			C55.6,28.76,55.89,28.75,56.2,28.76z M53.24,28.61l-0.33,0.19l-0.21-0.24L53.24,28.61z M53.17,29.21
			c-0.63,0.09-1.27,0.18-1.1-0.09h-0.11C52.57,29.08,53.1,29.01,53.17,29.21z M51.83,29.12c-0.33,0.03-0.62,0.11-0.55,0
			C51.46,29.14,51.65,29.13,51.83,29.12z M50.56,29.79l0.42,0.08l-0.49,0.11L50.56,29.79z M48.71,29.81l0.64-0.09l-0.83,0.31
			L48.71,29.81z M41.75,30.1c0.65,0.11,1.15,0.13,1.62,0.07c-0.44,0.11-0.94,0.23-1.51,0.25C42.23,30.34,41.4,30.24,41.75,30.1z
			 M41.64,28.99l-0.04-0.11l0.73,0.18l-1.43,0.1C41.01,29.08,40.83,28.95,41.64,28.99z M36.43,30.12c-0.04-0.11-0.58-0.15-0.87-0.2
			l0.56-0.08c-0.05-0.08,0.09-0.14,0.84-0.13l-0.84,0.13C36.17,29.92,36.48,30.05,36.43,30.12z M40,30.04l-0.85,0.26l0.47-0.17
			L40,30.04z M38.7,29.74c0.41,0.01,0.63,0.02,0.72,0.02c-0.11,0-0.35-0.01-0.71-0.01l0.33,0.21c-0.47-0.05-0.59-0.16-0.66-0.21
			c0.12,0,0.23,0,0.33,0L38.7,29.74z M38.32,29.42l-0.11,0.08l-0.33-0.02l-0.96,0.14c0.24-0.06,0.08-0.14,0.07-0.19l0.89,0.05
			L38.32,29.42z M36.2,28.64c0.21,0.01,0.17,0.02,0.05,0.05c0.02,0.07-0.33,0.11,0.02,0.17c0.41,0.02,0.51-0.06,0.63-0.09
			c0.46,0.18,0.64,0.32,0.84,0.5c0.12-0.03-0.77-0.29-1.46-0.36l-0.12,0.03c-0.77-0.1-0.16-0.19,0.09-0.25
			C36.25,28.67,36.25,28.65,36.2,28.64z M35.28,29.08c0.99,0.18-0.03,0.3-0.53,0.41C35.5,29.32,34.93,29.22,35.28,29.08z
			 M32.03,29.74l-0.83,0.11c0.35-0.07,0.52-0.17,0.45-0.07C31.91,29.57,31.92,29.69,32.03,29.74l0.39-0.05
			C32.21,29.79,32.1,29.77,32.03,29.74z M32.56,29.31l0.27,0l-1.64,0.27L32.56,29.31z M31.71,29.94c0.44,0.13,0.6,0.21-0.18,0.27
			c0.25-0.06-0.42-0.08-0.58-0.15L31.71,29.94z M30.52,29.55c-0.76,0.12-0.21,0.17,0.21,0.24C29.28,29.84,29.07,29.6,30.52,29.55z
			 M28.93,29.98c1.31-0.07,0.5-0.09,0.68,0.04c-0.28,0-0.44-0.01-0.56-0.01c0.38,0.11-0.58,0.01,0,0
			C29.01,30.01,28.99,30,28.93,29.98z M26.4,28.83l0.57,0.1c0.04,0.11-0.81-0.04-1.06,0.01L26.4,28.83z M23.58,29.14l0.16,0.08
			c0.97,0.12,2.44-0.28,2.95,0.07c-0.83-0.1-2.37,0.09-3.55,0.13L23.58,29.14z M21.23,29.28l0.76-0.12l-0.86,0.2L21.23,29.28z
			 M16.37,29.99l-0.1,0.81l-0.06-0.29L16.37,29.99z"/>
	</g>
	<g>
		<path class="st8" d="M57.58,108.46c0.38,0.28,0.57,0.44,0.03,0.01L57.58,108.46z"/>
		<path class="st8" d="M67.34,117.38c0.03,0.33,0.11,0.7,0.21,1.04v-1.24C67.49,117.28,67.41,117.43,67.34,117.38z"/>
		<path class="st8" d="M62.8,111.01c1.13,0.54,2.12,0.87,2.73,0.95l-5.02-3.03c0.15,0.11,0.26,0.2,0.33,0.28
			c-0.35-0.3-1.09-0.67-1.47-0.8l0.82,0.64c-0.72-0.42-1.16-0.99-2.27-1.55c0.09,0.27-0.81,0.03-0.14,0.73
			c1.89,1.48,1.91,0.59,4.33,2.12C62.37,110.44,61.45,110.31,62.8,111.01z M63.39,110.73c0.37,0.18,0.6,0.38,0.47,0.4l-0.98-0.51
			C62.77,110.45,63.14,110.64,63.39,110.73z"/>
		<path class="st8" d="M67.55,148.74c-0.16,0.06-0.31,0.1-0.42,0.01l0.42,1.04V148.74z"/>
		<path class="st8" d="M67.55,135.62v-2.27c-0.26-0.72-0.52-1.36-0.69-1.73l0.18,1.37l-0.16,0.34
			C66.98,134.17,67.25,134.96,67.55,135.62z"/>
		<path class="st8" d="M41.46,98.84c-0.07-0.06-0.05-0.03,0,0.03c0.01-0.01,0.02-0.01,0.03-0.02
			C41.48,98.85,41.47,98.84,41.46,98.84z"/>
		<path class="st8" d="M41.6,98.83c-0.04,0-0.08,0.01-0.11,0.02C41.65,98.92,42.03,99.14,41.6,98.83z"/>
		<path class="st8" d="M64.9,168.71c0.27-0.13,0.44-0.23,0.24-0.28l-1.67,0.17c0.16,0.04,0.4,0.12,0.66,0.21h0.36
			C64.64,168.77,64.78,168.74,64.9,168.71z"/>
		<polygon class="st8" points="41.45,98.87 41.46,98.87 41.46,98.87 		"/>
		<path class="st8" d="M46.8,100.67c0,0-0.02,0-0.02,0l0.11,0.05L46.8,100.67z"/>
		<path class="st8" d="M66.34,139.59l0.23-0.23c-0.05-0.53-0.08-1.07-0.08-1.43c-0.02,0.16-0.06,0.35-0.11,0.54
			C66.33,138.77,66.3,139.13,66.34,139.59z"/>
		<path class="st8" d="M45.18,99.69c0.43,0.38,0.92,0.65,1.29,0.78L45.18,99.69z"/>
		<path class="st8" d="M66.91,125.72c0.11,0.19,0.36,0.25,0.64,0.25v-1.46l-0.36-0.18l0.36-0.03v-1.52
			c-0.04,0.02-0.07,0.07-0.11,0.16C67.26,123.44,66.94,125.57,66.91,125.72z"/>
		<path class="st8" d="M15.75,83.48l-0.05-0.75c0.3,0.25,0.01,2.37,0.32,2.8l-0.31,2.38c0.11-0.08,0.28,0.32,0.32-0.07
			c-0.01-0.29-0.01-0.58-0.02-0.78c0.03,0.4,0.03,0.64,0.02,0.78c0.01,0.59,0.02,1.1,0.18,0.33c-0.76,5.69-0.02,11.54-0.43,17.15
			c0.03,0.38,0.13,0.16,0.2,0.02c-0.29,1.03,0.15,0.99,0.19,1.55l-0.42,1.51c0.12,0.61,0.25,0.13,0.33,0.18
			c0.08,2.86-0.32,5.65-0.08,7.96c-0.15,0.74-0.33-0.18-0.39,0.8c0.43-1.32,0.2,2.84,0.5,1.99c-0.46,0.94-0.1,3.5-0.73,3.08
			c-0.04,1.17,0.27,0.96,0.33,0.63c-0.02,1.35-0.03,2.44,0.17,3.55c-0.15,0.74,0.16,6.18-0.32,7.38c0.31-0.82,0.16,0.06,0.29,0.85
			l0.27-0.71l-0.03,1.78c0.03,0.36,0.01,0.46-0.01,0.46c-0.01,0.3-0.16-0.07-0.23,0.7c-0.02,1.21,0.13,1.27,0.27,1.94l0.04-0.19
			l0.03,0.82c-0.01,0.61-0.27-2.14-0.41-0.17c0.08,0.03,0.44,1.19,0.24,1.72c0.01-1.01-0.18-0.88-0.26-0.51l-0.02,1.41l0.35-0.47
			c-0.02,4.05-0.27,8.27-0.24,12.59c-0.3-0.06-0.02,3.06-0.46,2.67l0.04-0.17c-0.04-1.06-0.35,0.31-0.3,1.17
			c0.14-0.9,0.45,1.62,0.51-0.58l0.21,1.7c0.85,0.94-0.07,4.53,0.2,7.11c-0.03-0.18-0.08-0.23-0.11-0.25
			c0.03,0.24,0.05,0.48,0.06,0.72l0.02,0.53c0,0.24-0.02,0.48-0.04,0.74c0.32,0.05,0.62,0.09,0.86,0.13
			c0.38,0.03,0.8,0.05,0.93,0.01l0.2,0.24c1.92-0.37,2.15-0.4,4.44-0.25c-0.03,0.04-0.29,0.11,0.07,0.16
			c0.55-0.18,1.11-0.35,2.67-0.3l-0.06,0.07l2.45-0.04c-0.02,0.74,4.2-0.45,4.94,0.35c0.48-0.21,2.28-0.28,3.07-0.38
			c-0.01-0.05,0.11-0.09,0.38-0.13c0.06,0.05-0.1,0.09-0.38,0.13c0.01,0.03,0.06,0.06,0.19,0.1c0.94-0.4,2.72,0.12,3.76,0.08
			c0.68-0.09,0.39-0.22,0.09-0.35c1.35,0.31,3.72-0.35,4.21-0.22c0.99,0.03,0.37,0.28,0.64,0.45c1.47-0.07-0.25-0.67,1.72-0.37
			c-0.23,0.03-0.65,0.06-0.49,0.1c0.75,0.06,2.09,0.91,2.84,0.74l-0.49-0.13c1.37-0.19,3.24,0.6,3.46,0.1l-0.13-0.23
			c2.36,0.31,1-0.09,3.39,0.18l-0.03,0.04c1.04-0.04,1.61,0.24,2.12-0.13l-0.36-0.05c1.29-0.03,1.41,0,2.73,0.02
			c0.15-0.04,0.79-0.09,0.98-0.01c0.06-0.31,3.06-0.14,3.65-0.12c-1.04,0.05-0.55,0.18-0.25,0.3c0.61-0.25,1.04-0.28,1.89-0.1
			c0.02-0.19,0.23-0.39,0.3-0.54c0.1-0.15,0.19-0.26,0.39-0.27c-0.01,0.06-0.12,0.09-0.02,0.17c0.09,0.06,0.17,0.02,0.19-0.01
			c-0.01-0.03-0.02-0.05-0.02-0.06c0.04,0.01,0.08,0.08,0.12,0.16c0.01,0.04,0.01,0.09,0.11,0.15l0.01-0.02
			c-0.16-0.42-0.16-0.55-0.14-0.77c0.01-0.03,0.03-0.45,0.04-0.75c0.01-0.33,0-0.69-0.03-1.1c0.11,0.53,0.19,0.07,0.32-0.12
			c-0.43-0.13,0.37-2.29-0.18-1.66c0.33-3.28,0.02-8.33,0.38-9.61c0.15-0.34-0.1-1.26-0.1-1.83l0.19,0.08
			c-0.34-1.6-0.13-1.24-0.47-3.12c0.22,0.78,0.33,0.45,0.5-0.33l-0.39-1.29l0.29-0.25c-0.11-0.53-0.07-1.12-0.02-1.71
			c0,0.29,0.03,0.13,0.08,0.11c-0.4-0.28-0.35-2.59-0.55-2.95c0.39-0.58-0.1-1.55,0.27-1.97c-0.05-0.19-0.1-0.43-0.14-0.7
			c-0.17,0.28-0.36,0.38-0.28-0.14c0-0.05,0-0.08-0.01-0.12l-0.21,0.2c-0.21,0.08,0.06-0.66,0.24-1.32
			c0.04-0.22,0.08-0.44,0.11-0.64c0-0.07,0-0.14,0-0.19c0.01,0.03,0.01,0.07,0.01,0.11c0.05-0.32,0.08-0.66,0-1.12
			c0.35-1.86-0.48-4.13,0-6.17c-0.05,0.31-0.07,0.74,0.01,0.86c-0.02-1.71,0.3-3.41,0.13-4.5l-0.21,0.08
			c-0.1-1.26-0.16-2.23-0.15-3.24l-0.24-0.06c0.09-1.47-0.3-4.63,0.2-5.53c-0.19-0.36,0.06-2.03-0.01-2.87l0.18-0.21
			c0.04-0.93,0.02-0.98-0.01-1.16c-0.08-0.03-0.15-0.05-0.22-0.08c0.02,0.03,0.04,0.05,0.05,0.08c-0.15-0.01-0.17,0.01-0.31-0.08
			c-0.23-0.15-0.44-0.32-0.63-0.48c-0.33-0.21-0.7-0.47-1.14-0.83c0.24-0.06,0.62,0.38,1.14,0.83c0.21,0.14,0.41,0.25,0.6,0.35
			c0.12,0.06,0.18,0.09,0.19,0.09l0.1,0.03c-0.02-0.04-0.05-0.08-0.09-0.13c-0.04-0.05-0.2-0.16-0.29-0.23
			c-0.22-0.16-0.43-0.31-0.66-0.46c-0.44-0.29-0.89-0.55-1.34-0.79c-0.89-0.49-1.78-0.92-2.59-1.42l0.01-0.06l-1.72-0.88
			c0.52,0.12-0.38-0.1-0.86-0.44c-0.57-0.24-1.4-0.8-1.97-1.28l-1.05-0.64c1.24,0.6,0.05-0.28,0.09-0.51l-0.76-0.26
			c-0.22-0.25,0.52,0.12,0.04-0.22c-0.51-0.17-1.84-0.98-2.37-1.04c0.04,0.09,0.18,0.23,0.35,0.39c0.06,0.02,0.06,0.02,0.02,0.01
			l0.04,0.04c0.23,0.17,0.36,0.27,0.43,0.33c0.18,0.12,0.36,0.25,0.57,0.37c-0.25-0.14-0.4-0.23-0.51-0.29c-0.07-0.01-0.37-0.2,0,0
			c0.02,0.01,0-0.02-0.06-0.08c-0.16-0.11-0.31-0.23-0.43-0.33c-0.02-0.02-0.03-0.02-0.05-0.04c-0.07-0.02-0.18-0.04-0.23-0.04
			c0.09,0.06,0.18,0.12,0.3,0.21c-0.34-0.16-0.37-0.2-0.3-0.21c-0.82-0.55-0.55-0.28-0.57-0.18c-0.78-0.86-1.43-0.99-1.96-1.77
			c0.77,0.98-2.19-1.31-1.78-0.58c-0.54-0.72-0.48-0.31-0.79-0.83c0.95,0.68,2.1,1.01,2.98,1.37l-0.69-0.65
			c0.71-0.02,1.7,1.19,2.24,1.36c-0.36-0.11-1.03-0.62-1.01-0.71l0.06,0.38c1.07,0.78,2.08,1.12,2.96,1.48
			c-0.71-0.54,1.01,0.4,0.56-0.11l-0.62-0.33c-0.07-0.08-0.04-0.1,0.01-0.1l-6.45-3.89c-0.29,0.14-1.69-0.59-1.41-0.17
			c-0.47-0.4-0.19-0.42-1.3-0.98c-0.76-0.26,0.66,0.76,0.89,1.02c-0.86-0.39-0.9-0.32-0.96-0.26l0.05,0.07l-0.08-0.05
			c-0.07,0.03-0.22,0.02-0.81-0.23c-0.42-0.43-0.65-0.65-1.01-0.91l-1.62-0.84l0.03,0.03c0.2,0.16,0.39,0.31,0.55,0.46
			c-0.09,0.01-0.4-0.3-0.55-0.46c-0.25-0.19-0.5-0.37-0.76-0.57c-0.44-0.25-0.83-0.47-1.22-0.61c-0.5-0.29-0.24-0.27-0.15-0.29
			c-0.3-0.18-0.58-0.33-0.85-0.47c-0.16-0.05-0.33-0.09-0.52-0.17c0.03,0.06,0.04,0.08-0.06-0.02l0.06,0.02
			c-0.02-0.04-0.05-0.08-0.09-0.12c0.19,0.08,0.39,0.18,0.61,0.29c0.23,0.06,0.46,0.15,0.79,0.39c0.12,0.06,0.1,0.07,0.06,0.08
			c0.46,0.27,0.92,0.58,1.37,0.9c0.26,0.15,0.55,0.31,0.87,0.46c-1.07-0.78,1.02,0.29-0.56-0.61c0.62,0.27,0.41-0.04,1.39,0.53
			c0.37,0.49-0.46,0.08-0.82,0.11c0.75,0.42,1.16,0.67,1.48,0.89l0.34,0.18l-0.13-0.04l1.61,1l0.03-0.02
			c-0.49-0.69-0.68-1.51,0.1-1.23l-1.17-0.71c0.23,0.2-0.07,0.09-0.5-0.16l0.02-0.11c0.04,0.02,0.09,0.04,0.13,0.07L16.09,82.17
			l-0.19,0.12c0.02-0.05,0.02-0.14,0.03-0.22l-0.83-0.5v2.35C15.34,83.41,15.56,82.93,15.75,83.48z M54.42,106.79
			c0.11,0.16,0.16-0.16,0.39,0.04C56.29,107.57,54,106.83,54.42,106.79z M49.93,104.04c0.17,0.15,0.28,0.27,0.66,0.49l-0.81-0.42
			C50.03,104.25,49.92,104.1,49.93,104.04z M52.43,104.28c0.14,0.07,0.27,0.11,0.27,0.07l0.84,0.58
			C53.53,105.01,52.96,104.61,52.43,104.28c-0.24-0.11-0.57-0.3-0.72-0.39C51.89,103.96,52.15,104.11,52.43,104.28z M49.81,102.53
			l-0.4-0.02l-0.07-0.33L49.81,102.53z M49.45,103.01c-0.62-0.27-1.25-0.54-0.95-0.68l-0.1-0.06
			C48.97,102.57,49.49,102.81,49.45,103.01z M47.77,101.9c0.16,0.11,0.33,0.21,0.51,0.3C47.96,102.05,47.65,101.96,47.77,101.9z
			 M46.79,102.08l0.35,0.3l-0.5-0.17L46.79,102.08z M45.09,101.08l0.62,0.27l-0.91-0.19L45.09,101.08z M38.6,97.51
			c0.53,0.45,0.98,0.74,1.44,0.95c-0.46-0.15-0.97-0.32-1.5-0.61C38.92,97.98,38.21,97.44,38.6,97.51z M39.06,96.5l0.02-0.11
			l0.57,0.55l-1.35-0.7C38.44,96.23,38.34,96.02,39.06,96.5z M36.14,96.26l0.52,0.11l0.38,0.13L36.14,96.26z M36.66,95.94
			c-0.1-0.06-0.32-0.2-0.64-0.4l0.2,0.36c-0.4-0.3-0.46-0.47-0.5-0.54c0.1,0.06,0.21,0.13,0.3,0.18l-0.01-0.01
			C36.38,95.76,36.57,95.89,36.66,95.94z M35.83,95.05l-0.14,0.01l-0.29-0.2l-0.94-0.4c0.25,0.08,0.14-0.07,0.16-0.13l0.79,0.53
			L35.83,95.05z M34.31,93.28c0-0.02,0.01-0.03-0.03-0.07C34.47,93.32,34.42,93.32,34.31,93.28c-0.02,0.07-0.36-0.09-0.07,0.15
			c0.36,0.24,0.49,0.23,0.62,0.27c0.33,0.41,0.42,0.62,0.51,0.89c0.12,0.04-0.55-0.67-1.15-1.11l-0.12-0.04
			C33.45,92.94,34.06,93.19,34.31,93.28z M34.43,94.54l-0.83-0.35c0,0.11,0.22,0.38,0.14,0.42c0.02-0.11-0.45-0.45-0.69-0.65
			l0.55,0.23C33.61,94.1,33.76,94.12,34.43,94.54z M33.22,93.09c0.82,0.7-0.18,0.24-0.69,0.07C33.3,93.41,32.83,93.02,33.22,93.09z
			 M30.63,91.79l0.24,0.14l-1.63-0.67L30.63,91.79z M29.57,91.7c0.34-0.03,0.3,0.07,0.37,0.18l0.38,0.17
			c-0.25-0.04-0.34-0.11-0.38-0.17l-0.81-0.37C29.48,91.64,29.68,91.65,29.57,91.7z M29.54,91.87c0.34,0.35,0.44,0.51-0.3,0.14
			c0.26,0.09-0.35-0.3-0.45-0.45L29.54,91.87z M28.65,90.88c-0.75-0.32-0.28,0.03,0.07,0.32C27.37,90.45,27.3,90.13,28.65,90.88z
			 M26.98,90.38c1.23,0.66,0.5,0.19,0.6,0.41c-0.25-0.16-0.4-0.25-0.5-0.31c0.29,0.3-0.53-0.31,0,0
			C27.05,90.44,27.03,90.43,26.98,90.38z M25.27,88l0.47,0.4c-0.02,0.11-0.72-0.48-0.97-0.57L25.27,88z M22.54,86.72l0.11,0.16
			c0.83,0.64,2.36,1.1,2.66,1.68c-0.71-0.54-2.2-1.22-3.3-1.84L22.54,86.72z M20.33,85.55l0.75,0.31l-0.89-0.3L20.33,85.55z
			 M16.37,83.08l-0.1,0.86l-0.06-0.3L16.37,83.08z"/>
		<path class="st8" d="M65.51,168.8c0-0.06-0.07-0.12-0.31-0.16c-0.09,0.02-0.2,0.05-0.31,0.07c-0.06,0.03-0.13,0.06-0.19,0.09
			H65.51z"/>
		<path class="st8" d="M15.96,136.49l0.06-0.28C15.96,136.03,15.9,135.86,15.96,136.49z"/>
	</g>
</g>
</svg>
